<svg width="96" height="96" xmlns="http://www.w3.org/2000/svg" xmlns:xlink="http://www.w3.org/1999/xlink" xml:space="preserve" overflow="hidden"><defs><clipPath id="clip0"><rect x="405" y="12" width="96" height="96"/></clipPath></defs><g clip-path="url(#clip0)" transform="translate(-405 -12)"><path d="M441.315 103 415 92.1 415 26.999 441.315 16.099 441.315 103Z" stroke="#5B9BD5" stroke-width="1.33333" fill="#FFFFFF"/><path d="M468.068 37.866 468.068 50.366 445.315 50.366 445.315 66.366 468.068 66.366 468.068 78.866 492.068 58.366 468.068 37.866Z" stroke="#5B9BD5" stroke-width="1.33333" fill="#FFFFFF"/><path d="M456.068 46.366 462.068 46.366 462.068 26.366 445.315 26.366 445.315 32.366 456.068 32.366 456.068 46.366Z" stroke="#5B9BD5" stroke-width="1.33333" fill="#FFFFFF"/><path d="M456.068 70.366 456.068 86.366 445.315 86.366 445.315 92.366 462.068 92.366 462.068 70.366 456.068 70.366Z" stroke="#5B9BD5" stroke-width="1.33333" fill="#FFFFFF"/></g></svg>